<?xml version="1.0" encoding="UTF-8" standalone="no"?>
<svg width="960px" height="800px" viewBox="0 0 960 800" version="1.1" xmlns="http://www.w3.org/2000/svg" xmlns:xlink="http://www.w3.org/1999/xlink" xmlns:sketch="http://www.bohemiancoding.com/sketch/ns">
    <!-- Generator: Sketch 3.4.4 (17249) - http://www.bohemiancoding.com/sketch -->
    <title>Full Logo</title>
    <desc>Created with Sketch.</desc>
    <defs></defs>
    <g id="Page-1" stroke="none" stroke-width="1" fill="none" fill-rule="evenodd" sketch:type="MSPage">
        <g id="Full-Logo" sketch:type="MSLayerGroup" transform="translate(-5.000000, -22.000000)">
            <g id="claptrap" transform="translate(102.000000, 213.000000)" sketch:type="MSShapeGroup">
                <g id="main-mailbox" transform="translate(224.000000, 32.000000)">
                    <path d="M269,488.708329 L269,99.9944696 C269,44.7773599 224.229193,0 169.001604,0 L99.9983956,0 C44.7785454,0 0,44.769049 0,99.9944696 L0,488.708329 L0,475.948625 L269,475.948625 L269,488.708329 Z" id="mailbox" fill="#2C3E50"></path>
                    <rect id="mask" fill="#FFFFFF" x="43" y="445" width="184" height="112" rx="31"></rect>
                </g>
                <g id="mail-door" transform="translate(275.000000, 277.000000)" stroke="#18BC9C">
                    <rect id="Rectangle-4" stroke-width="5" x="0" y="0" width="167" height="112" rx="9"></rect>
                    <circle id="Oval-1" stroke-width="3" cx="145" cy="56" r="9"></circle>
                </g>
                <path d="M464.499,568.104 C455.893,546.11 433.421,528.419 383.218,524.116 C379.871,523.638 377.002,523.638 373.656,523.16 L373.656,472 L344.968,472 L344.968,523.159 C341.621,523.159 338.274,523.638 335.406,523.638 C277.075,527.941 254.125,549.935 245.04,567.147 C246.953,566.669 248.387,566.669 250.299,566.669 C255.08,566.669 259.861,568.104 264.165,570.972 C271.815,559.497 290.462,546.11 335.406,542.763 C338.275,542.763 341.622,542.284 344.968,542.284 L344.968,570.972 C349.271,568.104 354.052,566.669 359.312,566.669 C364.572,566.669 369.353,568.104 373.656,571.45 L373.656,542.762 C377.003,542.762 380.349,543.24 383.218,543.24 C420.989,546.588 437.246,557.584 444.418,569.537 C448.243,567.625 452.068,566.669 455.893,566.669 C458.762,566.669 461.63,567.147 464.499,568.104 Z M371.265,581.969 C368.396,578.622 364.093,576.232 359.312,576.232 C355.487,576.232 352.618,577.667 349.75,579.579 C345.925,582.448 343.534,586.751 343.534,591.532 L343.534,592.488 C343.534,601.094 350.706,608.266 359.312,608.266 C367.918,608.266 375.09,601.094 375.09,592.488 L375.09,591.532 C375.09,587.706 373.656,584.359 371.265,581.969 L371.265,581.969 Z M468.325,581.969 C465.456,578.622 461.153,576.232 456.372,576.232 C452.547,576.232 449.678,577.667 446.81,579.579 C442.985,582.448 440.594,586.751 440.594,591.532 L440.594,592.488 C440.594,601.094 447.766,608.266 456.372,608.266 C464.978,608.266 472.15,601.094 472.15,592.488 L472.15,591.532 C471.671,587.706 470.237,584.359 468.325,581.969 L468.325,581.969 Z M262.731,581.969 C259.862,578.622 255.559,576.232 250.778,576.232 C246.953,576.232 244.084,577.667 241.216,579.579 C237.391,582.448 235,586.751 235,591.532 L235,592.488 C235,601.094 242.172,608.266 250.778,608.266 C259.384,608.266 266.556,601.094 266.556,592.488 L266.556,591.532 C266.077,587.706 264.643,584.359 262.731,581.969 L262.731,581.969 Z" id="rollers" fill="#2C3E50"></path>
                <g id="eyes" transform="translate(286.000000, 135.000000)" stroke="#18BC9C" stroke-width="3">
                    <rect id="eye-window" fill="#FFFFFF" x="0" y="0" width="146" height="43" rx="13"></rect>
                    <path d="M47,32 C52.5228475,32 57,27.5228475 57,22 C57,16.4771525 52.5228475,12 47,12 C41.4771525,12 37,16.4771525 37,22 C37,27.5228475 41.4771525,32 47,32 Z" id="left-eye" fill="#2C3E50"></path>
                    <path d="M99,32 C104.522847,32 109,27.5228475 109,22 C109,16.4771525 104.522847,12 99,12 C93.4771525,12 89,16.4771525 89,22 C89,27.5228475 93.4771525,32 99,32 Z" id="right-eye" fill="#2C3E50"></path>
                </g>
                <g id="claws">
                    <g id="claw-left" transform="translate(113.500000, 163.000000) rotate(-90.000000) translate(-113.500000, -163.000000) translate(-49.500000, 49.500000)">
                        <path d="M22.7780791,137 C21.0280226,141.843513 18.2525424,146.400509 14.3832768,150.275319 C10.199548,154.436648 5.25016949,157.315468 0,159.020931 L39.5950282,198.560371 L31.9385311,198.560371 L31.9385311,226.325299 L106.247571,226.325299 L106.247571,198.560371 L84.4265537,198.560371 L22.7780791,137 L22.7780791,137 Z" id="Shape" fill="#2C3E50" transform="translate(53.123785, 181.662650) scale(-1, 1) translate(-53.123785, -181.662650) "></path>
                        <g id="arm-and-joint" transform="translate(89.000000, 0.000000)">
                            <g id="joint" transform="translate(0.000000, 82.000000)">
                                <ellipse id="Oval" fill="#18BC9C" cx="36.2042938" cy="36.8509482" rx="15.1762712" ry="15.1445062"></ellipse>
                                <path d="M72.4085876,36.8509482 C72.4085876,16.9311472 56.1658757,0.722432469 36.2042938,0.722432469 C16.2563842,0.722432469 0,16.9311472 0,36.8509482 C0,56.7707492 16.2427119,72.979464 36.2042938,72.979464 C56.1658757,72.979464 72.4085876,56.7707492 72.4085876,36.8509482 L72.4085876,36.8509482 Z M36.2042938,64.4248645 C20.9733333,64.4248645 8.57254237,52.0636729 8.57254237,36.8509482 C8.57254237,21.6382235 20.9733333,9.27703193 36.2042938,9.27703193 C51.4489266,9.27703193 63.8360452,21.6382235 63.8360452,36.8509482 C63.8360452,52.0636729 51.4352542,64.4248645 36.2042938,64.4248645 L36.2042938,64.4248645 Z" id="Shape" fill="#2C3E50"></path>
                            </g>
                            <path d="M228.922768,55.1977416 C227.500847,53.7787969 225.217571,53.7378658 223.781977,55.1431668 L190.722316,87.3968719 L166.385593,74.6536568 L160.000621,46.9023724 L176.298022,24.8268669 L220.131469,39.4665563 C220.801412,39.6848555 221.485028,39.7121429 222.127627,39.5620622 C223.317119,39.2891882 224.342542,38.4296351 224.739039,37.1744148 C225.408983,35.2779406 224.369887,33.2040983 222.469435,32.5764881 L176.10661,17.0908894 C174.602655,16.5724289 172.961977,17.1045331 172.03226,18.3733972 L157.197797,38.4296351 L144.961073,41.2265935 L146.683785,48.7033407 L61.0540677,68.3229803 C64.2260451,72.375159 66.6187005,77.1368101 67.8492089,82.4851402 C69.1617513,88.2154939 69.0113558,93.9322039 67.6577965,99.2941777 L153.766045,79.5517448 L155.488757,87.0284921 L168.518474,84.0405219 L168.49113,83.9859471 L189.655876,95.0782746 C190.462542,95.4875856 191.351243,95.5967352 192.171582,95.3920797 C192.814181,95.241999 193.429435,94.928194 193.894294,94.4506645 L228.840734,60.3277725 C230.29,58.9361152 230.317345,56.63033 228.922768,55.1977416 L228.922768,55.1977416 Z" id="Shape" fill="#2C3E50" transform="translate(145.501327, 58.094087) rotate(-12.000000) translate(-145.501327, -58.094087) "></path>
                        </g>
                    </g>
                    <g id="claw-right" transform="translate(578.238916, 277.000000) scale(-1, 1) rotate(-90.000000) translate(-578.238916, -277.000000) translate(457.238916, 181.500000)">
                        <ellipse id="Oval" fill="#18BC9C" cx="36.2042938" cy="77.8509482" rx="15.1762712" ry="15.1445062"></ellipse>
                        <path d="M72.4085876,77.8509482 C72.4085876,57.9311472 56.1658757,41.7224325 36.2042938,41.7224325 C16.2563842,41.7224325 0,57.9311472 0,77.8509482 C0,97.7707492 16.2427119,113.979464 36.2042938,113.979464 C56.1658757,113.979464 72.4085876,97.7707492 72.4085876,77.8509482 L72.4085876,77.8509482 Z M36.2042938,105.424865 C20.9733333,105.424865 8.57254237,93.0636729 8.57254237,77.8509482 C8.57254237,62.6382235 20.9733333,50.2770319 36.2042938,50.2770319 C51.4489266,50.2770319 63.8360452,62.6382235 63.8360452,77.8509482 C63.8360452,93.0636729 51.4352542,105.424865 36.2042938,105.424865 L36.2042938,105.424865 Z" id="Shape" fill="#2C3E50"></path>
                        <path d="M77.3169492,100.704145 C75.5668927,105.547658 72.7914124,110.104653 68.9221469,113.979464 C64.7384181,118.140792 59.7890395,121.019613 54.5388701,122.725075 L94.1338983,162.264516 L86.4774011,162.264516 L86.4774011,190.029444 L160.786441,190.029444 L160.786441,162.264516 L138.965424,162.264516 L77.3169492,100.704145 L77.3169492,100.704145 Z" id="Shape" fill="#2C3E50"></path>
                        <path d="M240.249944,38.8299682 C238.828023,37.4110235 236.544746,37.3700924 235.109153,38.7753934 L202.049492,71.0290986 L177.712768,58.2858834 L171.327797,30.534599 L187.625198,8.45909357 L231.458644,23.0987829 C232.128588,23.3170821 232.812203,23.3443695 233.454802,23.1942888 C234.644294,22.9214148 235.669718,22.0618618 236.066215,20.8066414 C236.736158,18.9101672 235.697062,16.8363249 233.79661,16.2087148 L187.433785,0.723116063 C185.929831,0.20465549 184.289153,0.736759762 183.359435,2.0056238 L168.524972,22.0618618 L156.288249,24.8588201 L158.01096,32.3355673 L72.3812429,51.9552069 C75.5532203,56.0073856 77.9458757,60.7690367 79.1763842,66.1173668 C80.4889266,71.8477205 80.3385311,77.5644305 78.9849718,82.9264044 L165.09322,63.1839715 L166.815932,70.6607187 L179.84565,67.6727485 L179.818305,67.6181737 L200.983051,78.7105013 C201.789718,79.1198123 202.678418,79.2289619 203.498757,79.0243064 C204.141356,78.8742257 204.75661,78.5604206 205.221469,78.0828911 L240.16791,43.9599992 C241.617175,42.5683418 241.64452,40.2625566 240.249944,38.8299682 L240.249944,38.8299682 Z" id="Shape" fill="#2C3E50"></path>
                    </g>
                </g>
            </g>
            <path d="M92.1208545,113.079751 C90.4383744,113.671554 7.40504987,142.93399 5.7665882,143.51112 C4.37756398,144.000213 4.06943537,145.198491 5.7176789,145.853875 C7.67894197,146.641315 24.2836505,153.29298 24.2836505,153.29298 L24.2836505,153.29298 L35.2882438,157.699709 C35.2882438,157.699709 88.2961469,118.777685 89.0102228,118.249464 C89.7340805,117.721244 90.5655386,118.714103 90.0422091,119.281451 C89.5188795,119.853689 51.5456963,160.917941 51.5456963,160.917941 L51.5456963,160.927723 L49.3349958,163.387861 L52.264663,164.96274 L52.264663,164.96274 C52.264663,164.96274 75.0074892,177.20963 76.6312781,178.080215 C78.0545388,178.8432 79.8984195,178.21227 80.3092577,176.446645 C80.7934598,174.363108 94.2239545,116.478948 94.5223013,115.187742 C94.9086848,113.510153 93.7984436,112.487948 92.1208545,113.079751 L92.1208545,113.079751 Z M35.1904252,184.135187 C35.1904252,185.338356 35.8702645,185.67583 36.8093231,184.824808 C38.0369467,183.704785 50.7484746,172.299136 50.7484746,172.299136 L35.1904252,164.258446 L35.1904252,184.135187 L35.1904252,184.135187 Z" id="plane" stroke="#2C3E50" stroke-width="2" fill="#18BC9C" sketch:type="MSShapeGroup" transform="translate(49.599245, 149.104204) rotate(-352.000000) translate(-49.599245, -149.104204) "></path>
            <path d="M970.643683,618.110164 C969.279005,618.590182 901.929752,642.325269 900.600778,642.793385 C899.474125,643.190094 899.224198,644.162031 900.561107,644.693621 C902.151909,645.332322 915.620173,650.727561 915.620173,650.727561 L915.620173,650.727561 L924.546121,654.301908 C924.546121,654.301908 967.54142,622.731822 968.120615,622.303376 C968.707744,621.874931 969.382149,622.680249 968.95767,623.140432 C968.533192,623.604581 937.732721,656.912251 937.732721,656.912251 L937.732721,656.920186 L935.939597,658.915631 L938.315883,660.193033 L938.315883,660.193033 C938.315883,660.193033 956.762842,670.126621 958.079915,670.832763 C959.234338,671.451629 960.72993,670.939874 961.063165,669.507756 C961.455907,667.817776 972.349531,620.86729 972.591523,619.819979 C972.904923,618.459268 972.004394,617.630147 970.643683,618.110164 L970.643683,618.110164 Z M924.466779,675.744018 C924.466779,676.719922 925.018204,676.993651 925.779885,676.303377 C926.775624,675.394914 937.086086,666.143665 937.086086,666.143665 L924.466779,659.621772 L924.466779,675.744018 L924.466779,675.744018 Z" id="plane" stroke="#2C3E50" stroke-width="2" fill="#18BC9C" sketch:type="MSShapeGroup" transform="translate(936.153933, 647.329998) scale(-1, 1) rotate(-327.000000) translate(-936.153933, -647.329998) "></path>
            <path d="M765.02146,13.3073378 C763.642203,13.7924837 695.573431,37.7811424 694.230259,38.2542599 C693.091569,38.6552069 692.838973,39.637527 694.190164,40.174796 C695.797961,40.8203206 709.410112,46.2731998 709.410112,46.2731998 L709.410112,46.2731998 L718.431419,49.8857322 C718.431419,49.8857322 761.886055,17.9783703 762.471437,17.5453475 C763.064839,17.1123248 763.746449,17.9262472 763.317435,18.3913457 C762.888422,18.8604537 731.758897,52.5239634 731.758897,52.5239634 L731.758897,52.5319824 L729.946617,54.5487458 L732.34829,55.8397951 L732.34829,55.8397951 C732.34829,55.8397951 750.992325,65.8795078 752.323469,66.5931935 C753.490225,67.2186708 755.001795,66.7014492 755.33859,65.2540305 C755.735528,63.5459963 766.745532,16.0939194 766.99011,15.0354194 C767.306858,13.6601712 766.396708,12.8221919 765.02146,13.3073378 L765.02146,13.3073378 Z M718.35123,71.5569173 C718.35123,72.5432469 718.908546,72.8199003 719.678364,72.1222526 C720.684741,71.2040839 731.105354,61.854 731.105354,61.854 L718.35123,55.2624314 L718.35123,71.5569173 L718.35123,71.5569173 Z" id="plane" stroke="#2C3E50" stroke-width="2" fill="#18BC9C" sketch:type="MSShapeGroup" transform="translate(730.163243, 42.839339) scale(-1, 1) rotate(-334.000000) translate(-730.163243, -42.839339) "></path>
        </g>
    </g>
</svg>